<svg xmlns="http://www.w3.org/2000/svg" xmlns:xlink="http://www.w3.org/1999/xlink" width="134pt" height="188pt" viewBox="0 0 134 188"><g id="graph0" class="graph" transform="scale(1 1) rotate(0) translate(4 184)"><title>%3</title><polygon fill="#fff" stroke="transparent" points="-4 4 -4 -184 130 -184 130 4 -4 4"/><g id="node1" class="node"><title>7</title><ellipse cx="63" cy="-162" fill="none" stroke="#000" rx="27" ry="18"/><text x="63" y="-157.8" fill="#000" font-family="Times,serif" font-size="14" text-anchor="middle">7</text></g><g id="node2" class="node"><title>3</title><ellipse cx="27" cy="-90" fill="none" stroke="#000" rx="27" ry="18"/><text x="27" y="-85.8" fill="#000" font-family="Times,serif" font-size="14" text-anchor="middle">3</text></g><g id="edge1" class="edge"><title>7--3</title><path fill="none" stroke="#000" d="M54.285,-144.57C48.625,-133.25 41.278,-118.56 35.634,-107.27"/></g><g id="node3" class="node"><title>9</title><ellipse cx="99" cy="-90" fill="none" stroke="#000" rx="27" ry="18"/><text x="99" y="-85.8" fill="#000" font-family="Times,serif" font-size="14" text-anchor="middle">9</text></g><g id="edge2" class="edge"><title>7--9</title><path fill="none" stroke="#000" d="M71.715,-144.57C77.375,-133.25 84.722,-118.56 90.366,-107.27"/></g><g id="node4" class="node"><title>4</title><ellipse cx="27" cy="-18" fill="none" stroke="#000" rx="27" ry="18"/><text x="27" y="-13.8" fill="#000" font-family="Times,serif" font-size="14" text-anchor="middle">4</text></g><g id="edge3" class="edge"><title>3--4</title><path fill="none" stroke="#000" d="M27,-71.831C27,-61 27,-47.288 27,-36.413"/></g></g></svg>